#!OML:ASF I:\Actors\actors\Patient Classification 2\Patient 1\Session 1\actor1.ASF
:FULLY-SPECIFIED
:DEGREES
494
root -1.02192 18.1633 6.02101 -0.493253 2.71012 -4.85028
lowerback 4.35982 1.61574 3.61733
upperback 1.02984 2.34101 1.64865
thorax -1.30841 1.1603 -0.458243
lowerneck -7.8638 3.69984 1.08048
upperneck 33.574 10.1615 -13.9592
head 13.5323 3.0291 -4.33343
rclavicle 1.17283e-014 -1.65488e-014
rhumerus -25.9163 33.276 -92.4583
rradius 114.5
rwrist -10.6852
rhand -27.2475 -30.8104
rfingers 7.12502
rthumb -0.659131 -420.789
lclavicle 1.17283e-014 -1.65488e-014
lhumerus -19.8592 -19.1422 100.691
lradius 97.9539
lwrist 79.7026
lhand -15.4046 -12.2452
lfingers 7.12502
lthumb 10.7745 17.4585
rfemur 0 0 0
rtibia 0
rfoot 0 0
rtoes 0
lfemur 18.686 -6.55636 -11.9005
ltibia -20.2305
lfoot -1.13943 18.3549
ltoes -13.9082
495
root -1.02331 18.1627 6.02242 -0.482907 2.70891 -4.81234
lowerback 4.33873 1.61042 3.56711
upperback 1.02955 2.33047 1.63745
thorax -1.29883 1.15532 -0.440543
lowerneck -7.86015 3.6981 1.04934
upperneck 33.5583 10.1548 -13.9384
head 13.5206 3.02518 -4.31922
rclavicle -7.62215e-015 1.56294e-014
rhumerus -25.9005 33.1519 -92.3802
rradius 114.436
rwrist -10.0566
rhand -26.4714 -30.6343
rfingers 7.12502
rthumb 0.0904294 -420.614
lclavicle -7.62215e-015 1.56294e-014
lhumerus -19.8127 -19.1455 100.675
lradius 97.9417
lwrist 79.685
lhand -15.2838 -12.1288
lfingers 7.12502
lthumb 10.891 17.5688
rfemur 0 0 0
rtibia 0
rfoot 0 0
rtoes 0
lfemur 18.6781 -6.6135 -11.949
ltibia -20.2222
lfoot -1.18406 18.4126
ltoes -14.2188
496
root -1.02386 18.1625 6.02358 -0.470182 2.71412 -4.79868
lowerback 4.33063 1.61733 3.5602
upperback 1.01928 2.33915 1.62744
thorax -1.30444 1.15949 -0.44732
lowerneck -7.83763 3.67152 0.951116
upperneck 33.5334 10.0887 -13.8203
head 13.4825 2.99914 -4.2604
rclavicle -1.77167e-014 -2.43263e-014
rhumerus -25.8399 32.9058 -92.238
rradius 114.254
rwrist -9.32899
rhand -25.3334 -29.639
rfingers 7.12502
rthumb 1.18958 -419.615
lclavicle -1.77167e-014 -2.43263e-014
lhumerus -19.8142 -19.1654 100.682
lradius 97.9452
lwrist 79.7366
lhand -15.3982 -12.3298
lfingers 7.12502
lthumb 10.7806 17.3735
rfemur 0 0 0
rtibia 0
rfoot 0 0
rtoes 0
lfemur 18.6596 -6.6616 -11.967
ltibia -20.1997
lfoot -1.25771 18.4654
ltoes -14.3457
497
root -1.02362 18.1625 6.02421 -0.467272 2.71987 -4.80001
lowerback 4.34471 1.62491 3.58058
upperback 1.00929 2.35109 1.62094
thorax -1.32108 1.16502 -0.466597
lowerneck -7.84419 3.66778 0.904364
upperneck 33.5863 10.0659 -13.7142
head 13.4943 2.99288 -4.21391
rclavicle 7.63923e-015 2.41026e-015
rhumerus -25.8381 32.7882 -92.1617
rradius 114.157
rwrist -8.88252
rhand -24.679 -29.0662
rfingers 7.12502
rthumb 1.8216 -419.038
lclavicle 7.63923e-015 2.41026e-015
lhumerus -19.8199 -19.1842 100.704
lradius 97.9568
lwrist 79.7821
lhand -15.5796 -12.4619
lfingers 7.12502
lthumb 10.6057 17.2505
rfemur 0 0 0
rtibia 0
rfoot 0 0
rtoes 0
lfemur 18.6495 -6.64997 -11.9647
ltibia -20.1848
lfoot -1.24197 18.4509
ltoes -14.3139
498
root -1.02372 18.162 6.02486 -0.471865 2.72534 -4.81045
lowerback 4.35437 1.62846 3.59488
upperback 1.01558 2.35678 1.62471
thorax -1.3194 1.16791 -0.471179
lowerneck -7.85325 3.65474 0.846884
upperneck 33.5832 10.0454 -13.6765
head 13.4871 2.98069 -4.19041
rclavicle 1.2525e-014 -9.39258e-015
rhumerus -25.9809 33.0266 -92.2467
rradius 114.264
rwrist -9.1993
rhand -25.3938 -29.2254
rfingers 7.12502
rthumb 1.13124 -419.202
lclavicle 1.2525e-014 -9.39258e-015
lhumerus -19.7996 -19.1971 100.723
lradius 97.9443
lwrist 79.7741
lhand -15.6009 -12.4206
lfingers 7.12502
lthumb 10.5851 17.2928
rfemur 0 0 0
rtibia 0
rfoot 0 0
rtoes 0
lfemur 18.6505 -6.65532 -11.9553
ltibia -20.173
lfoot -1.1934 18.4429
ltoes -14.1215
499
root -1.02431 18.1617 6.02568 -0.471081 2.72927 -4.83386
lowerback 4.35398 1.63607 3.61037
upperback 1.0264 2.36726 1.62817
thorax -1.30721 1.17339 -0.476558
lowerneck -7.87485 3.65405 0.893049
upperneck 33.5809 10.0527 -13.7253
head 13.4977 2.98344 -4.21757
rclavicle -3.39953e-015 -1.22004e-014
rhumerus -26.1807 33.4324 -92.4316
rradius 114.473
rwrist -10.0605
rhand -26.8438 -29.6414
rfingers 7.12502
rthumb -0.269205 -419.621
lclavicle -3.39953e-015 -1.22004e-014
lhumerus -19.7616 -19.2263 100.729
lradius 97.9171
lwrist 79.7821
lhand -15.5671 -12.3962
lfingers 7.12502
lthumb 10.6177 17.3155
rfemur 0 0 0
rtibia 0
rfoot 0 0
rtoes 0
lfemur 18.6495 -6.70955 -11.9337
ltibia -20.1649
lfoot -1.21745 18.4885
ltoes -13.9206
500
root -1.02526 18.1625 6.02651 -0.457469 2.73555 -4.80655
lowerback 4.34617 1.64232 3.56276
upperback 1.03407 2.37263 1.61758
thorax -1.29628 1.17644 -0.46076
lowerneck -7.90858 3.65368 0.951976
upperneck 33.5868 10.0629 -13.7837
head 13.5164 2.98703 -4.25095
rclavicle 5.71817e-015 3.10601e-015
rhumerus -26.2678 33.6671 -92.4953
rradius 114.612
rwrist -10.4637
rhand -27.4278 -29.935
rfingers 7.12502
rthumb -0.833317 -419.913
lclavicle 5.71817e-015 3.10601e-015
lhumerus -19.7476 -19.2586 100.731
lradius 97.9253
lwrist 79.7903
lhand -15.5627 -12.3408
lfingers 7.12502
lthumb 10.622 17.3707
rfemur 0 0 0
rtibia 0
rfoot 0 0
rtoes 0
lfemur 18.6394 -6.78423 -11.9685
ltibia -20.1678
lfoot -1.29 18.5701
ltoes -13.8422
501
root -1.02552 18.163 6.02724 -0.444777 2.75965 -4.7705
lowerback 4.34046 1.63487 3.49625
upperback 1.03388 2.35954 1.61938
thorax -1.2965 1.1701 -0.42103
lowerneck -7.92466 3.64509 0.874677
upperneck 33.5791 10.0427 -13.7182
head 13.5056 2.97531 -4.21187
rclavicle -1.64028e-014 3.60297e-015
rhumerus -26.2904 33.7778 -92.4266
rradius 114.676
rwrist -10.3327
rhand -27.2318 -30.1031
rfingers 7.12502
rthumb -0.643965 -420.082
lclavicle -1.64028e-014 3.60297e-015
lhumerus -19.7746 -19.2458 100.763
lradius 97.9506
lwrist 79.7541
lhand -15.5762 -12.2312
lfingers 7.12502
lthumb 10.609 17.481
rfemur 0 0 0
rtibia 0
rfoot 0 0
rtoes 0
lfemur 18.6268 -6.82867 -12.0116
ltibia -20.1763
lfoot -1.29229 18.611
ltoes -13.9245
502
root -1.02506 18.163 6.02765 -0.43574 2.79013 -4.78162
lowerback 4.32832 1.6217 3.50189
upperback 1.03355 2.34182 1.62833
thorax -1.29078 1.16133 -0.41372
lowerneck -7.89221 3.64603 0.826792
upperneck 33.5408 10.0381 -13.6962
head 13.4768 2.97285 -4.19294
rclavicle 1.62444e-015 1.59028e-015
rhumerus -26.3233 33.8934 -92.3805
rradius 114.74
rwrist -10.1919
rhand -27.1614 -30.1417
rfingers 7.12502
rthumb -0.575936 -420.121
lclavicle 1.62444e-015 1.59028e-015
lhumerus -19.787 -19.2159 100.809
lradius 97.9554
lwrist 79.701
lhand -15.6186 -12.1517
lfingers 7.12502
lthumb 10.5681 17.5626
rfemur 0 0 0
rtibia 0
rfoot 0 0
rtoes 0
lfemur 18.6143 -6.82861 -11.9971
ltibia -20.1893
lfoot -1.24036 18.5874
ltoes -14.0397
503
root -1.02474 18.1637 6.0277 -0.436648 2.80772 -4.78896
lowerback 4.34592 1.6159 3.51022
upperback 1.03206 2.33553 1.63589
thorax -1.30233 1.15799 -0.410905
lowerneck -7.86012 3.65263 0.829873
upperneck 33.5121 10.0545 -13.7345
head 13.4619 2.97889 -4.20589
rclavicle -1.38932e-014 1.44119e-015
rhumerus -26.3532 33.9962 -92.3662
rradius 114.789
rwrist -9.9971
rhand -27.285 -29.9912
rfingers 7.12502
rthumb -0.695352 -419.97
lclavicle -1.38932e-014 1.44119e-015
lhumerus -19.7909 -19.1968 100.864
lradius 97.9518
lwrist 79.6574
lhand -15.6484 -12.1737
lfingers 7.12502
lthumb 10.5393 17.5421
rfemur 0 0 0
rtibia 0
rfoot 0 0
rtoes 0
lfemur 18.6225 -6.82255 -11.9858
ltibia -20.2169
lfoot -1.21217 18.5668
ltoes -13.8847
504
root -1.02405 18.1647 6.0274 -0.442715 2.8139 -4.80977
lowerback 4.38291 1.61302 3.53158
upperback 1.03258 2.33462 1.64509
thorax -1.32203 1.15718 -0.414523
lowerneck -7.8676 3.65087 0.836535
upperneck 33.5096 10.0589 -13.7587
head 13.4653 2.9787 -4.21628
rclavicle 1.15481e-014 -9.24349e-015
rhumerus -26.3401 34.0926 -92.3474
rradius 114.823
rwrist -9.64695
rhand -27.3117 -30.2579
rfingers 7.12502
rthumb -0.721181 -420.236
lclavicle 1.15481e-014 -9.24349e-015
lhumerus -19.7935 -19.1989 100.89
lradius 97.9453
lwrist 79.6107
lhand -15.699 -12.2679
lfingers 7.12502
lthumb 10.4906 17.4504
rfemur 0 0 0
rtibia 0
rfoot 0 0
rtoes 0
lfemur 18.6444 -6.84071 -11.9658
ltibia -20.2468
lfoot -1.21541 18.591
ltoes -13.6727
505
root -1.02311 18.1651 6.02711 -0.437234 2.82255 -4.8568
lowerback 4.36849 1.60897 3.60279
upperback 1.03927 2.33131 1.63884
thorax -1.30406 1.15566 -0.459814
lowerneck -7.84521 3.63777 0.91511
upperneck 33.4906 10.0437 -13.8333
head 13.4593 2.97519 -4.26294
rclavicle 9.33511e-015 -2.24627e-014
rhumerus -26.2884 34.2093 -92.329
rradius 114.854
rwrist -9.28619
rhand -27.1789 -31.0444
rfingers 7.12502
rthumb -0.592892 -421.023
lclavicle 9.33511e-015 -2.24627e-014
lhumerus -19.7958 -19.2327 100.868
lradius 97.9364
lwrist 79.5895
lhand -15.8009 -12.3651
lfingers 7.12502
lthumb 10.3922 17.3581
rfemur 0 0 0
rtibia 0
rfoot 0 0
rtoes 0
lfemur 18.644 -6.87836 -11.9221
ltibia -20.2575
lfoot -1.21796 18.6288
ltoes -13.739
506
root -1.0225 18.165 6.02689 -0.433321 2.83843 -4.87068
lowerback 4.35624 1.61095 3.63964
upperback 1.04036 2.33469 1.62416
thorax -1.29387 1.1574 -0.495127
lowerneck -7.82338 3.61759 0.994144
upperneck 33.4901 10.0228 -13.9114
head 13.4614 2.96816 -4.313
rclavicle 4.07819e-015 -7.33018e-015
rhumerus -26.1822 34.2818 -92.2349
rradius 114.77
rwrist -8.8307
rhand -26.7357 -31.4007
rfingers 7.12502
rthumb -0.164834 -421.38
lclavicle 4.07819e-015 -7.33018e-015
lhumerus -19.8122 -19.2767 100.872
lradius 97.9169
lwrist 79.5912
lhand -15.8582 -12.4262
lfingers 7.12502
lthumb 10.337 17.2998
rfemur 0 0 0
rtibia 0
rfoot 0 0
rtoes 0
lfemur 18.631 -6.90308 -11.9124
ltibia -20.2542
lfoot -1.18719 18.6341
ltoes -13.9165
